# xmcd
#
# Track frame offsets: 
#        150
#        9031
#        26632
#        50586
#        67177
#        83744
#        100523
#        115708
#        129515
#        146528
#        170023
#        189794
#        206213
#        218628
#        238577
#        257966
#        287122
#        301666
#
# Disc length: 4306 seconds
#
# Revision: 0
# Processed by: cddbd v1.5.2PL0 Copyright (c) Steve Scherf et al.
# Submitted via: ExactAudioCopyFreeDBPlugin 1.0
#
DISCID=f610d012
DTITLE=The R.O.C. - Oh Hell No! (Remastered)
DYEAR=2015
DGENRE=The Wicked Shit
TTITLE0=R.E.M.
TTITLE1=3Sixtys5
TTITLE2=Catch Me If You Can
TTITLE3=Don't Know The Half
TTITLE4=Fresh Up In The Spot
TTITLE5=Head Case
TTITLE6=Shades
TTITLE7=I'm Here
TTITLE8=The Mad Dash
TTITLE9=Sinner of The Universe
TTITLE10=Hello
TTITLE11=I Ain't Dead Yet
TTITLE12=White House
TTITLE13=Understanding
TTITLE14=Get It Live
TTITLE15=I Know You Hate Me
TTITLE16=Who's This
TTITLE17=No Control
EXTD=
EXTT0=
EXTT1=
EXTT2=
EXTT3=
EXTT4=
EXTT5=
EXTT6=
EXTT7=
EXTT8=
EXTT9=
EXTT10=
EXTT11=
EXTT12=
EXTT13=
EXTT14=
EXTT15=
EXTT16=
EXTT17=
PLAYORDER=
